<?xml version="1.0" encoding="UTF-8" standalone="no"?>
<!DOCTYPE svg PUBLIC "-//W3C//DTD SVG 1.1//EN" "http://www.w3.org/Graphics/SVG/1.1/DTD/svg11.dtd">
<svg width="100%" height="100%" viewBox="0 0 2732 1001" version="1.1" xmlns="http://www.w3.org/2000/svg" xmlns:xlink="http://www.w3.org/1999/xlink" xml:space="preserve" xmlns:serif="http://www.serif.com/" style="fill-rule:evenodd;clip-rule:evenodd;stroke-linejoin:round;stroke-miterlimit:2;">
    <g transform="matrix(0.138799,0,0,-0.138799,-323.907,1977.65)">
        <path d="M16035,13834C15598,13824 15176,13771 14645,13659C14623,13655 14542,13635 14465,13615C13903,13470 13379,13278 12895,13040C12370,12782 11757,12369 11269,11945C11082,11782 10737,11431 10622,11288C10356,10954 10098,10497 9984,10154C9867,9806 9845,9459 9919,9165C10014,8791 10279,8481 10670,8285C11146,8047 12046,7847 13035,7760C13820,7691 15237,7680 16194,7735C16897,7776 17766,7846 18240,7900C18287,7905 18370,7914 18425,7920C18480,7926 18563,7935 18610,7940C18726,7953 18876,7967 19250,8000C19447,8018 19844,8040 20173,8051C20353,8058 20498,8065 20495,8068C20492,8071 20415,8077 20323,8082C20139,8091 19896,8103 19580,8119C19006,8148 18790,8152 18270,8147C17766,8143 17564,8134 17100,8100C16822,8079 16502,8058 16195,8040C15839,8019 15115,8000 14790,8002L14445,8005L14485,8033C14507,8048 14581,8097 14650,8142C14895,8301 15117,8462 15332,8637C15401,8694 15463,8740 15468,8740C15473,8740 15490,8721 15505,8699C15644,8489 15955,8340 16257,8340C16374,8340 16470,8358 16590,8402C16688,8438 16726,8440 16830,8416C16894,8401 16941,8399 17140,8403C17397,8408 17454,8416 17676,8484C17998,8583 18173,8684 18252,8816C18271,8847 18294,8873 18305,8875C18316,8877 18438,8881 18575,8884C18890,8891 18987,8901 19054,8934C19115,8964 19140,9001 19140,9063C19140,9109 19123,9136 19071,9173C19057,9182 19049,9192 19052,9195C19055,9198 19138,9225 19237,9255C19710,9398 19944,9517 20138,9711C20355,9928 20477,10205 20551,10650C20571,10766 20568,11166 20547,11260C20395,11947 19791,12779 19120,13225C18627,13553 17917,13752 17000,13819C16847,13830 16273,13839 16035,13834ZM16930,13641C17262,13611 17295,13607 17550,13565C18253,13449 18762,13255 19151,12954C19666,12556 20109,11953 20294,11399C20314,11341 20337,11258 20345,11214C20363,11121 20365,10836 20349,10727C20292,10334 20191,10087 20010,9897C19843,9720 19633,9619 19146,9479C19031,9446 18853,9399 18751,9374C18477,9309 18478,9309 18444,9284C18400,9252 18384,9208 18397,9159L18407,9120L18318,9120C18234,9120 18224,9122 18165,9155C18091,9197 18033,9215 17927,9229C17700,9260 17564,9219 17544,9114C17535,9067 17545,9036 17581,8996C17629,8940 17735,8911 17943,8894C18042,8887 18043,8872 17948,8826C17748,8731 17363,8640 17160,8640C17117,8640 17079,8644 17076,8648C17073,8653 17096,8681 17127,8711C17191,8772 17214,8819 17206,8865C17184,8981 17004,8992 16814,8889C16685,8819 16619,8751 16604,8673C16591,8605 16502,8576 16305,8575C16177,8575 16158,8577 16080,8604C15965,8642 15850,8703 15789,8758C15740,8801 15680,8890 15680,8919C15680,8926 15793,9043 15931,9178C16267,9507 16363,9623 16668,10063C16857,10335 16956,10491 17030,10634C17149,10860 17207,11114 17168,11242C17143,11325 17038,11379 16923,11367C16694,11343 16308,10960 15864,10315C15606,9939 15502,9749 15444,9540C15404,9397 15389,9278 15390,9120C15391,9040 15392,8970 15391,8964C15388,8937 15039,8668 14755,8473C14447,8262 14276,8165 14134,8120C14038,8090 13825,8089 13733,8118C13611,8157 13540,8220 13475,8350C13405,8488 13389,8605 13409,8815C13428,9003 13427,9002 13559,9152C13698,9311 13988,9672 14126,9860C14374,10196 14516,10423 14705,10785C14748,10868 14804,10976 14830,11025C14981,11311 15012,11374 15049,11457C15138,11661 15180,11838 15180,12016C15180,12128 15180,12130 15150,12164C15111,12207 15063,12224 14995,12217C14918,12209 14865,12177 14769,12081C14611,11922 14406,11623 14133,11155C13747,10492 13540,10075 13394,9663C13349,9536 13271,9274 13250,9180C13231,9099 13219,9080 13128,8998C12744,8654 12419,8461 12095,8385C12004,8363 11966,8360 11816,8360C11612,8360 11551,8374 11448,8443C11333,8520 11303,8596 11321,8762C11347,8993 11419,9205 11650,9725C11787,10035 11860,10187 12019,10500C12371,11195 12452,11362 12635,11775C12803,12152 12814,12189 12815,12343L12815,12462L12782,12491C12756,12515 12741,12520 12700,12520C12558,12520 12196,12316 11859,12046C11677,11900 11288,11510 11257,11443C11244,11415 11262,11390 11290,11397C11301,11400 11374,11464 11453,11539C11782,11852 11914,11962 12130,12107C12355,12257 12587,12378 12657,12383C12694,12385 12695,12384 12698,12349C12704,12280 12662,12154 12560,11935C12447,11691 12415,11625 12283,11360C12205,11203 12075,10951 11995,10800C11847,10523 11612,10061 11525,9875C11479,9777 11446,9707 11369,9543C11348,9497 11300,9382 11261,9288C11149,9010 11108,8842 11107,8660C11106,8555 11109,8539 11134,8480C11149,8444 11164,8405 11167,8393C11172,8372 11170,8371 11134,8382C11062,8401 10825,8492 10755,8527C10644,8582 10527,8665 10436,8750C10105,9064 10022,9530 10197,10090C10234,10208 10326,10425 10388,10540C10652,11030 10818,11251 11216,11640C11764,12175 12490,12679 13156,12987C13540,13165 14106,13363 14520,13464C14941,13567 15427,13639 15805,13654C15968,13661 16819,13651 16930,13641ZM15048,12068C15063,12053 15063,11942 15050,11848C15028,11699 14945,11496 14797,11230C14762,11167 14673,11007 14600,10875C14409,10530 14263,10306 14031,10005C13922,9863 13622,9504 13580,9465L13548,9435L13555,9469C13570,9539 13659,9783 13725,9936C13801,10112 13808,10126 13910,10330C14027,10564 14317,11097 14460,11340C14704,11754 14904,12025 14995,12066C15033,12083 15033,12083 15048,12068ZM17022,11187C17034,11167 17031,11079 17015,11010C16971,10821 16869,10634 16612,10275C16226,9736 16122,9615 15717,9242C15686,9213 15655,9192 15649,9196C15636,9204 15645,9331 15666,9432C15710,9645 15824,9865 16119,10310C16281,10552 16340,10633 16470,10790C16623,10973 16790,11133 16880,11180C16936,11210 17005,11213 17022,11187ZM13180,8656C13180,8452 13252,8249 13381,8086C13403,8059 13417,8033 13413,8029C13405,8023 13314,8027 13015,8050C12779,8068 12317,8122 12220,8144L12165,8156L12240,8184C12415,8249 12451,8264 12559,8321C12697,8393 12877,8517 13037,8650C13102,8704 13161,8749 13168,8749C13177,8750 13180,8725 13180,8656Z" style="fill:rgb(71,138,211);fill-rule:nonzero;"/>
        <path d="M5533,12901C5476,12886 5407,12838 5316,12748C5267,12700 5224,12660 5222,12660C5219,12660 5220,12678 5224,12700C5231,12747 5212,12803 5182,12819C5124,12850 5074,12809 5041,12705C5011,12609 4999,12583 4823,12200C4686,11903 4601,11731 4510,11565C4495,11538 4463,11479 4440,11435C4373,11309 4271,11161 4205,11093C4145,11031 4143,11030 4091,11030C4047,11030 4034,11034 4010,11058C3962,11107 3955,11151 3956,11400C3958,11641 3965,11740 4010,12100C4029,12252 4002,12340 3938,12340C3912,12340 3869,12307 3852,12273C3837,12246 3837,12185 3850,12160C3857,12147 3853,12097 3836,11988C3794,11723 3787,11632 3786,11360C3785,11066 3788,11050 3858,10947C3940,10829 4145,10807 4272,10903C4320,10939 4429,11079 4489,11180C4521,11234 4587,11358 4674,11525C4709,11592 4686,11508 4596,11237C4473,10870 4443,10768 4285,10195C4260,10103 4144,9641 4115,9515C4083,9380 3968,8812 3940,8655C3935,8628 3921,8553 3910,8490C3889,8374 3885,8353 3855,8160C3812,7879 3796,7547 3820,7458C3833,7414 3881,7370 3918,7370C3967,7370 4004,7403 4039,7475C4111,7628 4223,8007 4295,8345C4310,8419 4380,8807 4380,8821C4380,8825 4402,8836 4430,8845C4493,8866 4565,8931 4621,9017C4645,9054 4668,9087 4672,9088C4677,9090 4680,9099 4681,9108C4681,9118 4684,9120 4686,9113C4689,9107 4678,9046 4661,8978C4618,8802 4608,8719 4612,8600C4615,8505 4618,8488 4648,8428C4692,8338 4751,8291 4855,8264C4927,8244 5137,8246 5208,8266C5312,8296 5453,8374 5557,8458L5600,8492L5650,8447C5738,8368 5775,8355 5925,8355C6006,8355 6074,8360 6105,8369C6174,8388 6273,8441 6350,8500C6386,8527 6419,8549 6423,8550C6428,8550 6450,8535 6473,8516C6588,8422 6693,8397 6945,8403C7131,8407 7133,8407 7346,8471C7388,8483 7388,8483 7434,8443C7508,8377 7562,8357 7655,8357C7721,8356 7745,8361 7790,8383C7943,8457 8069,8641 8207,8995C8281,9184 8317,9295 8411,9630C8638,10439 8729,10744 8866,11164C9044,11705 9095,11909 9094,12070C9093,12161 9089,12183 9065,12240C9050,12276 9032,12320 9025,12339C9014,12370 9011,12371 9002,12354C8997,12344 8962,12295 8926,12247C8850,12145 8838,12119 8774,11932C8749,11857 8670,11633 8600,11435C8530,11237 8451,11010 8425,10930C8360,10727 8183,10108 8115,9845C8084,9724 8054,9621 8049,9616C8044,9610 8031,9615 8017,9628C8005,9639 7978,9656 7958,9665C7812,9725 7679,9599 7505,9235C7417,9053 7385,8960 7364,8832C7355,8779 7346,8725 7344,8713C7338,8683 7304,8667 7193,8640C7111,8620 7083,8619 6923,8623C6730,8628 6694,8635 6631,8681L6589,8711L6607,8740C6617,8755 6655,8810 6691,8862C6782,8990 6877,9157 6910,9249C6948,9352 6967,9527 6950,9602C6921,9726 6866,9790 6780,9798C6684,9807 6634,9759 6540,9570C6412,9313 6345,9085 6332,8855L6325,8745L6256,8693C6138,8604 6073,8580 5958,8580C5873,8580 5832,8594 5806,8632C5784,8663 5786,8699 5811,8735C5863,8812 5994,9039 6045,9140C6202,9453 6291,9723 6306,9935C6312,10008 6310,10018 6288,10050C6257,10095 6224,10112 6176,10106C6122,10100 6093,10076 6038,9993C5974,9898 5703,9361 5653,9230C5586,9056 5540,8864 5540,8757C5540,8725 5532,8710 5488,8664C5422,8594 5317,8524 5215,8483C5142,8453 5126,8450 5030,8451C4907,8452 4863,8465 4833,8510C4813,8539 4810,8555 4810,8654C4810,8818 4840,8965 4945,9320C5085,9790 5090,9811 5090,9965C5090,10070 5093,10087 5124,10172C5481,11156 5580,11458 5736,12035C5787,12227 5800,12296 5806,12425C5821,12747 5764,12894 5619,12905C5589,12907 5551,12905 5533,12901ZM5640,12715C5652,12691 5655,12644 5655,12490C5655,12287 5656,12295 5600,12095C5490,11698 5309,11180 5007,10398C4932,10203 4922,10185 4874,10165C4855,10157 4815,10127 4787,10097C4741,10051 4609,9857 4539,9733C4508,9678 4487,9668 4494,9713C4497,9730 4507,9799 4516,9865C4540,10044 4550,10103 4610,10395C4700,10830 4931,11646 5055,11965C5169,12258 5317,12516 5450,12651C5552,12754 5610,12774 5640,12715ZM4781,9812C4747,9696 4573,9315 4506,9210C4477,9165 4470,9159 4470,9179C4470,9248 4606,9570 4710,9743C4771,9845 4797,9870 4781,9812ZM6762,9370C6750,9306 6712,9222 6656,9139C6624,9091 6620,9088 6620,9112C6620,9146 6671,9290 6717,9387C6746,9448 6755,9459 6762,9446C6768,9435 6768,9407 6762,9370ZM7951,9393C7967,9343 7957,9250 7925,9155C7880,9021 7853,8975 7790,8918C7730,8863 7645,8811 7635,8822C7603,8854 7839,9398 7904,9442" style="fill:rgb(71,138,211);fill-rule:nonzero;stroke:rgb(0,40,51);stroke-width:7.2px;"/>
    </g>
</svg>
